<mxfile host="app.diagrams.net" agent="Mozilla/5.0 (Windows NT 10.0; Win64; x64) AppleWebKit/537.36 (KHTML, like Gecko) Chrome/139.0.0.0 Safari/537.36" version="28.1.2">
  <diagram name="Page-1" id="N_Ab_peJH3Ivjif1r481">
    <mxGraphModel dx="719" dy="388" grid="1" gridSize="10" guides="1" tooltips="1" connect="1" arrows="1" fold="1" page="1" pageScale="1" pageWidth="827" pageHeight="1169" math="0" shadow="0">
      <root>
        <mxCell id="0" />
        <mxCell id="1" parent="0" />
        <mxCell id="GdMeHxesmmm8D8HOVETU-15" style="edgeStyle=orthogonalEdgeStyle;rounded=0;orthogonalLoop=1;jettySize=auto;html=1;exitX=0.5;exitY=1;exitDx=0;exitDy=0;entryX=0.5;entryY=0;entryDx=0;entryDy=0;" edge="1" parent="1" source="GdMeHxesmmm8D8HOVETU-3" target="GdMeHxesmmm8D8HOVETU-6">
          <mxGeometry relative="1" as="geometry" />
        </mxCell>
        <mxCell id="GdMeHxesmmm8D8HOVETU-3" value="drive" style="rounded=1;whiteSpace=wrap;html=1;" vertex="1" parent="1">
          <mxGeometry x="350" y="160" width="120" height="60" as="geometry" />
        </mxCell>
        <mxCell id="GdMeHxesmmm8D8HOVETU-9" style="edgeStyle=orthogonalEdgeStyle;rounded=0;orthogonalLoop=1;jettySize=auto;html=1;exitX=0.5;exitY=1;exitDx=0;exitDy=0;" edge="1" parent="1" source="GdMeHxesmmm8D8HOVETU-6" target="GdMeHxesmmm8D8HOVETU-7">
          <mxGeometry relative="1" as="geometry" />
        </mxCell>
        <mxCell id="GdMeHxesmmm8D8HOVETU-10" style="edgeStyle=orthogonalEdgeStyle;rounded=0;orthogonalLoop=1;jettySize=auto;html=1;exitX=0;exitY=0.5;exitDx=0;exitDy=0;entryX=0;entryY=0.5;entryDx=0;entryDy=0;" edge="1" parent="1" source="GdMeHxesmmm8D8HOVETU-6" target="GdMeHxesmmm8D8HOVETU-3">
          <mxGeometry relative="1" as="geometry">
            <Array as="points">
              <mxPoint x="320" y="290" />
              <mxPoint x="320" y="190" />
            </Array>
          </mxGeometry>
        </mxCell>
        <mxCell id="GdMeHxesmmm8D8HOVETU-14" value="else" style="edgeLabel;html=1;align=center;verticalAlign=middle;resizable=0;points=[];" vertex="1" connectable="0" parent="GdMeHxesmmm8D8HOVETU-10">
          <mxGeometry x="-0.06" relative="1" as="geometry">
            <mxPoint as="offset" />
          </mxGeometry>
        </mxCell>
        <mxCell id="GdMeHxesmmm8D8HOVETU-6" value="if dist &amp;lt; 1000" style="ellipse;whiteSpace=wrap;html=1;" vertex="1" parent="1">
          <mxGeometry x="350" y="250" width="120" height="80" as="geometry" />
        </mxCell>
        <mxCell id="GdMeHxesmmm8D8HOVETU-18" style="edgeStyle=orthogonalEdgeStyle;rounded=0;orthogonalLoop=1;jettySize=auto;html=1;exitX=1;exitY=0.5;exitDx=0;exitDy=0;entryX=0.5;entryY=1;entryDx=0;entryDy=0;" edge="1" parent="1" source="GdMeHxesmmm8D8HOVETU-7" target="GdMeHxesmmm8D8HOVETU-17">
          <mxGeometry relative="1" as="geometry" />
        </mxCell>
        <mxCell id="GdMeHxesmmm8D8HOVETU-7" value="turn rand L-R, 90-180" style="ellipse;whiteSpace=wrap;html=1;" vertex="1" parent="1">
          <mxGeometry x="350" y="350" width="120" height="80" as="geometry" />
        </mxCell>
        <mxCell id="GdMeHxesmmm8D8HOVETU-21" style="edgeStyle=orthogonalEdgeStyle;rounded=0;orthogonalLoop=1;jettySize=auto;html=1;exitX=0.5;exitY=0;exitDx=0;exitDy=0;" edge="1" parent="1" source="GdMeHxesmmm8D8HOVETU-17">
          <mxGeometry relative="1" as="geometry">
            <mxPoint x="470" y="289.9310344827586" as="targetPoint" />
            <Array as="points">
              <mxPoint x="540" y="290" />
              <mxPoint x="540" y="290" />
            </Array>
          </mxGeometry>
        </mxCell>
        <mxCell id="GdMeHxesmmm8D8HOVETU-22" style="edgeStyle=orthogonalEdgeStyle;rounded=0;orthogonalLoop=1;jettySize=auto;html=1;exitX=0;exitY=0.5;exitDx=0;exitDy=0;entryX=1;entryY=0;entryDx=0;entryDy=0;" edge="1" parent="1" source="GdMeHxesmmm8D8HOVETU-17" target="GdMeHxesmmm8D8HOVETU-7">
          <mxGeometry relative="1" as="geometry">
            <Array as="points">
              <mxPoint x="452" y="330" />
            </Array>
          </mxGeometry>
        </mxCell>
        <mxCell id="GdMeHxesmmm8D8HOVETU-25" value="reverse dir" style="edgeLabel;html=1;align=center;verticalAlign=middle;resizable=0;points=[];" vertex="1" connectable="0" parent="GdMeHxesmmm8D8HOVETU-22">
          <mxGeometry x="-0.4033" y="1" relative="1" as="geometry">
            <mxPoint y="-1" as="offset" />
          </mxGeometry>
        </mxCell>
        <mxCell id="GdMeHxesmmm8D8HOVETU-17" value="if last dist &amp;lt;= dist" style="ellipse;whiteSpace=wrap;html=1;" vertex="1" parent="1">
          <mxGeometry x="520" y="290" width="120" height="80" as="geometry" />
        </mxCell>
      </root>
    </mxGraphModel>
  </diagram>
</mxfile>
